<?xml version="1.0" encoding="UTF-8"?>
<!DOCTYPE svg PUBLIC "-//W3C//DTD SVG 1.1//EN" "http://www.w3.org/Graphics/SVG/1.1/DTD/svg11.dtd">
<svg xmlns="http://www.w3.org/2000/svg" version="1.1" width="260px" height="240px" style="shape-rendering:geometricPrecision; text-rendering:geometricPrecision; image-rendering:optimizeQuality; fill-rule:evenodd; clip-rule:evenodd" xmlns:xlink="http://www.w3.org/1999/xlink">
<g><path style="opacity:1" fill="#fdfdfd" d="M -0.5,-0.5 C 86.1667,-0.5 172.833,-0.5 259.5,-0.5C 259.5,79.5 259.5,159.5 259.5,239.5C 172.833,239.5 86.1667,239.5 -0.5,239.5C -0.5,159.5 -0.5,79.5 -0.5,-0.5 Z"/></g>
<g><path style="opacity:1" fill="#868686" d="M 224.5,8.5 C 221.214,9.20713 217.881,9.54046 214.5,9.5C 214.611,8.88258 214.944,8.38258 215.5,8C 218.696,7.19549 221.696,7.36216 224.5,8.5 Z"/></g>
<g><path style="opacity:1" fill="#161616" d="M 224.5,8.5 C 206.167,26.8333 187.833,45.1667 169.5,63.5C 168.604,64.5063 167.938,64.5063 167.5,63.5C 169.04,56.4659 170.707,49.4659 172.5,42.5C 174.225,39.2305 175.225,35.5638 175.5,31.5C 176.64,28.9752 177.307,26.3085 177.5,23.5C 179.176,22.8166 179.843,21.4832 179.5,19.5C 182.833,18.1667 186.167,16.8333 189.5,15.5C 191.527,15.6621 193.527,15.4955 195.5,15C 198.192,14.2567 200.525,13.09 202.5,11.5C 206.277,10.006 210.277,9.33936 214.5,9.5C 217.881,9.54046 221.214,9.20713 224.5,8.5 Z"/></g>
<g><path style="opacity:1" fill="#4a4a4a" d="M 202.5,11.5 C 200.525,13.09 198.192,14.2567 195.5,15C 193.527,15.4955 191.527,15.6621 189.5,15.5C 193.379,13.0232 197.713,11.6898 202.5,11.5 Z"/></g>
<g><path style="opacity:1" fill="#848484" d="M 179.5,19.5 C 179.843,21.4832 179.176,22.8166 177.5,23.5C 177.157,21.5168 177.824,20.1834 179.5,19.5 Z"/></g>
<g><path style="opacity:1" fill="#c7c7c7" d="M 228.5,30.5 C 229.084,25.5007 229.251,20.5007 229,15.5C 228.617,16.056 228.117,16.3893 227.5,16.5C 227.787,14.8793 228.787,13.8793 230.5,13.5C 230.833,14.5 231.167,15.5 231.5,16.5C 231.339,21.6094 230.339,26.2761 228.5,30.5 Z"/></g>
<g><path style="opacity:1" fill="#b8b8b8" d="M 175.5,31.5 C 175.225,35.5638 174.225,39.2305 172.5,42.5C 172.611,38.3584 173.611,34.6917 175.5,31.5 Z"/></g>
<g><path style="opacity:1" fill="#141414" d="M 151.5,33.5 C 153.484,48.1294 154.15,63.1294 153.5,78.5C 142.062,90.7197 130.395,102.72 118.5,114.5C 118.167,114.5 117.833,114.5 117.5,114.5C 117.194,96.7864 117.527,79.1198 118.5,61.5C 127.319,49.6877 138.319,40.3543 151.5,33.5 Z"/></g>
<g><path style="opacity:1" fill="#4d4d4d" d="M 151.5,33.5 C 151.5,33.1667 151.5,32.8333 151.5,32.5C 152.5,32.5 153.5,32.5 154.5,32.5C 154.5,47.8333 154.5,63.1667 154.5,78.5C 154.167,78.5 153.833,78.5 153.5,78.5C 154.15,63.1294 153.484,48.1294 151.5,33.5 Z"/></g>
<g><path style="opacity:1" fill="#919191" d="M 151.5,32.5 C 152.568,31.5655 153.901,31.2322 155.5,31.5C 155.83,47.3422 155.496,63.0089 154.5,78.5C 154.5,63.1667 154.5,47.8333 154.5,32.5C 153.5,32.5 152.5,32.5 151.5,32.5 Z"/></g>
<g><path style="opacity:1" fill="#9d9d9d" d="M 226.5,40.5 C 226.5,41.8333 226.5,43.1667 226.5,44.5C 222.882,45.6115 219.216,46.6115 215.5,47.5C 217.962,45.3093 220.962,43.9759 224.5,43.5C 224.285,41.8212 224.952,40.8212 226.5,40.5 Z"/></g>
<g><path style="opacity:1" fill="#151515" d="M 228.5,30.5 C 227.215,33.5885 226.549,36.9219 226.5,40.5C 224.952,40.8212 224.285,41.8212 224.5,43.5C 220.962,43.9759 217.962,45.3093 215.5,47.5C 210.284,49.3858 205.284,51.7191 200.5,54.5C 200.5,56.1667 200.5,57.8333 200.5,59.5C 205.992,61.1881 211.659,61.8548 217.5,61.5C 217.66,63.1992 217.494,64.8659 217,66.5C 211.896,75.7319 207.063,85.0652 202.5,94.5C 201.178,94.33 200.011,94.6634 199,95.5C 197.71,98.9298 195.877,101.93 193.5,104.5C 184.159,105.781 174.659,106.447 165,106.5C 156.167,106.333 147.333,106.167 138.5,106C 139.056,105.617 139.389,105.117 139.5,104.5C 145.833,98.1667 152.167,91.8333 158.5,85.5C 161.167,84.8333 162.833,83.1667 163.5,80.5C 184.235,58.6614 205.568,37.328 227.5,16.5C 228.117,16.3893 228.617,16.056 229,15.5C 229.251,20.5007 229.084,25.5007 228.5,30.5 Z"/></g>
<g><path style="opacity:1" fill="#a3a3a3" d="M 116.5,63.5 C 116.17,80.6749 116.503,97.6749 117.5,114.5C 117.833,114.5 118.167,114.5 118.5,114.5C 117.791,115.404 116.791,115.737 115.5,115.5C 115.17,97.992 115.503,80.6586 116.5,63.5 Z"/></g>
<g><path style="opacity:1" fill="#5c5c5c" d="M 118.5,61.5 C 117.527,79.1198 117.194,96.7864 117.5,114.5C 116.503,97.6749 116.17,80.6749 116.5,63.5C 116.5,62.1667 117.167,61.5 118.5,61.5 Z"/></g>
<g><path style="opacity:1" fill="#9d9d9d" d="M 167.5,63.5 C 167.938,64.5063 168.604,64.5063 169.5,63.5C 169.213,65.1207 168.213,66.1207 166.5,66.5C 165.202,64.9483 165.535,63.9483 167.5,63.5 Z"/></g>
<g><path style="opacity:1" fill="#636363" d="M 163.5,80.5 C 162.833,83.1667 161.167,84.8333 158.5,85.5C 159.833,83.5 161.5,81.8333 163.5,80.5 Z"/></g>
<g><path style="opacity:1" fill="#171717" d="M 77.5,155.5 C 75.7973,156.66 75.1307,155.993 75.5,153.5C 75.5,152.833 75.5,152.167 75.5,151.5C 76.7251,150.848 77.3917,149.681 77.5,148C 78.0305,145.183 78.3639,142.35 78.5,139.5C 80.2132,138.365 80.8799,136.698 80.5,134.5C 80.5,133.833 80.5,133.167 80.5,132.5C 81.9313,131.22 82.5979,129.553 82.5,127.5C 82.5,126.833 82.5,126.167 82.5,125.5C 84.256,124.448 84.9227,122.781 84.5,120.5C 87.07,111.361 90.7367,102.694 95.5,94.5C 99.9358,103.939 103.603,113.606 106.5,123.5C 106.167,124.833 105.833,126.167 105.5,127.5C 96.0907,136.849 86.7574,146.182 77.5,155.5 Z"/></g>
<g><path style="opacity:1" fill="#c9c9c9" d="M 139.5,104.5 C 139.389,105.117 139.056,105.617 138.5,106C 147.333,106.167 156.167,106.333 165,106.5C 174.659,106.447 184.159,105.781 193.5,104.5C 193.5,105.5 193.5,106.5 193.5,107.5C 174.833,107.5 156.167,107.5 137.5,107.5C 137.285,105.821 137.952,104.821 139.5,104.5 Z"/></g>
<g><path style="opacity:1" fill="#161616" d="M 148.5,141.5 C 146.152,141.592 144.486,142.592 143.5,144.5C 136.426,147.377 129.426,150.377 122.5,153.5C 120.302,153.875 118.302,154.542 116.5,155.5C 111.045,156.427 106.045,158.094 101.5,160.5C 98.9407,160.198 96.6074,160.532 94.5,161.5C 91.1501,161.665 87.8168,161.498 84.5,161C 86.7467,159.658 88.4134,157.824 89.5,155.5C 89.5943,152.932 90.9276,151.432 93.5,151C 103.988,139.012 114.988,127.512 126.5,116.5C 127.446,116.013 128.446,115.68 129.5,115.5C 142.291,119.368 154.958,123.534 167.5,128C 161.437,133.018 155.103,137.518 148.5,141.5 Z"/></g>
<g><path style="opacity:1" fill="#666666" d="M 84.5,120.5 C 84.9227,122.781 84.256,124.448 82.5,125.5C 82.4021,123.447 83.0687,121.78 84.5,120.5 Z"/></g>
<g><path style="opacity:1" fill="#6a6a6a" d="M 82.5,127.5 C 82.5979,129.553 81.9313,131.22 80.5,132.5C 80.0773,130.219 80.744,128.552 82.5,127.5 Z"/></g>
<g><path style="opacity:1" fill="#808080" d="M 80.5,134.5 C 80.8799,136.698 80.2132,138.365 78.5,139.5C 78.1201,137.302 78.7868,135.635 80.5,134.5 Z"/></g>
<g><path style="opacity:1" fill="#9e9e9e" d="M 148.5,141.5 C 147.395,143.223 145.728,144.223 143.5,144.5C 144.486,142.592 146.152,141.592 148.5,141.5 Z"/></g>
<g><path style="opacity:1" fill="#858585" d="M 78.5,139.5 C 78.3639,142.35 78.0305,145.183 77.5,148C 77.3917,149.681 76.7251,150.848 75.5,151.5C 75.5841,147.163 76.5841,143.163 78.5,139.5 Z"/></g>
<g><path style="opacity:1" fill="#6c6c6c" d="M 224.5,149.5 C 213.986,149.172 203.653,149.506 193.5,150.5C 192.167,150.5 190.833,150.5 189.5,150.5C 189.918,149.778 190.584,149.278 191.5,149C 202.674,148.174 213.674,148.341 224.5,149.5 Z"/></g>
<g><path style="opacity:1" fill="#3d3d3d" d="M 193.5,150.5 C 203.653,149.506 213.986,149.172 224.5,149.5C 225.693,149.97 226.36,150.97 226.5,152.5C 226.469,155.175 225.136,156.509 222.5,156.5C 222.821,154.952 223.821,154.285 225.5,154.5C 225.5,153.167 225.5,151.833 225.5,150.5C 214.833,150.5 204.167,150.5 193.5,150.5 Z"/></g>
<g><path style="opacity:1" fill="#141414" d="M 189.5,150.5 C 190.833,150.5 192.167,150.5 193.5,150.5C 204.167,150.5 214.833,150.5 225.5,150.5C 225.5,151.833 225.5,153.167 225.5,154.5C 223.821,154.285 222.821,154.952 222.5,156.5C 221.849,157.091 221.182,157.757 220.5,158.5C 219.204,165.193 219.204,171.859 220.5,178.5C 225.12,179.493 229.786,179.827 234.5,179.5C 234.5,184.5 234.5,189.5 234.5,194.5C 216.833,194.5 199.167,194.5 181.5,194.5C 181.5,189.5 181.5,184.5 181.5,179.5C 186.43,179.803 191.263,179.469 196,178.5C 196.667,171.5 196.667,164.5 196,157.5C 194.215,156.76 192.382,156.093 190.5,155.5C 189.548,153.955 189.215,152.288 189.5,150.5 Z"/></g>
<g><path style="opacity:1" fill="#878787" d="M 122.5,153.5 C 121.082,155.308 119.082,155.975 116.5,155.5C 118.302,154.542 120.302,153.875 122.5,153.5 Z"/></g>
<g><path style="opacity:1" fill="#888888" d="M 75.5,153.5 C 75.1307,155.993 75.7973,156.66 77.5,155.5C 76.4975,157.011 75.8308,158.678 75.5,160.5C 74.8333,160.5 74.1667,160.5 73.5,160.5C 72.9898,157.612 73.6565,155.279 75.5,153.5 Z"/></g>
<g><path style="opacity:1" fill="#434343" d="M 89.5,155.5 C 88.4134,157.824 86.7467,159.658 84.5,161C 87.8168,161.498 91.1501,161.665 94.5,161.5C 91.4115,162.785 88.0781,163.451 84.5,163.5C 82.0065,163.869 81.3398,163.203 82.5,161.5C 83.9197,158.412 86.253,156.412 89.5,155.5 Z"/></g>
<g><path style="opacity:1" fill="#bababa" d="M 116.5,155.5 C 112.295,158.771 107.295,160.438 101.5,160.5C 106.045,158.094 111.045,156.427 116.5,155.5 Z"/></g>
<g><path style="opacity:1" fill="#858585" d="M 82.5,161.5 C 81.3398,163.203 82.0065,163.869 84.5,163.5C 81.672,165.078 78.672,166.411 75.5,167.5C 76.9418,166.18 77.6085,164.514 77.5,162.5C 78.1499,162.804 78.8165,163.137 79.5,163.5C 80.2652,162.388 81.2652,161.721 82.5,161.5 Z"/></g>
<g><path style="opacity:1" fill="#222222" d="M 73.5,160.5 C 74.1667,160.5 74.8333,160.5 75.5,160.5C 76.8333,160.5 77.5,161.167 77.5,162.5C 77.6085,164.514 76.9418,166.18 75.5,167.5C 67.497,176.503 59.1637,185.169 50.5,193.5C 48.0509,195.636 45.3843,197.303 42.5,198.5C 41.9556,200.58 41.1223,202.58 40,204.5C 37.5905,206.416 35.4239,208.416 33.5,210.5C 32.0689,211.082 30.7356,211.915 29.5,213C 28.7476,213.671 28.4142,214.504 28.5,215.5C 26.9517,217.546 24.9517,219.212 22.5,220.5C 21.5713,221.689 21.238,223.022 21.5,224.5C 19.7231,224.786 18.0564,225.453 16.5,226.5C 14.36,225.527 12.6933,224.027 11.5,222C 31.744,200.922 52.4106,180.422 73.5,160.5 Z"/></g>
<g><path style="opacity:1" fill="#868686" d="M 234.5,217.5 C 234.5,213.167 234.5,208.833 234.5,204.5C 217.008,203.503 199.341,203.17 181.5,203.5C 181.5,203.167 181.5,202.833 181.5,202.5C 198.995,201.338 216.662,201.171 234.5,202C 235.824,207.266 235.824,212.433 234.5,217.5 Z"/></g>
<g><path style="opacity:1" fill="#292929" d="M 181.5,203.5 C 199.341,203.17 217.008,203.503 234.5,204.5C 217.167,204.5 199.833,204.5 182.5,204.5C 182.5,208.833 182.5,213.167 182.5,217.5C 181.514,213.03 181.181,208.363 181.5,203.5 Z"/></g>
<g><path style="opacity:1" fill="#111111" d="M 234.5,204.5 C 234.5,208.833 234.5,213.167 234.5,217.5C 217.167,217.5 199.833,217.5 182.5,217.5C 182.5,213.167 182.5,208.833 182.5,204.5C 199.833,204.5 217.167,204.5 234.5,204.5 Z"/></g>
<g><path style="opacity:1" fill="#a1a1a1" d="M 33.5,210.5 C 32.8333,213.167 31.1667,214.833 28.5,215.5C 28.4142,214.504 28.7476,213.671 29.5,213C 30.7356,211.915 32.0689,211.082 33.5,210.5 Z"/></g>
<g><path style="opacity:1" fill="#c2c2c2" d="M 181.5,202.5 C 181.5,202.833 181.5,203.167 181.5,203.5C 181.181,208.363 181.514,213.03 182.5,217.5C 199.833,217.5 217.167,217.5 234.5,217.5C 216.864,219.487 198.864,220.153 180.5,219.5C 180.178,213.642 180.511,207.975 181.5,202.5 Z"/></g>
</svg>
